<?xml version="1.0" encoding="UTF-8"?>
<svg id="Layer_1" data-name="Layer 1" xmlns="http://www.w3.org/2000/svg" xmlns:xlink="http://www.w3.org/1999/xlink" viewBox="0 0 307.33 168.89">
  <defs>
    <style>
      .cls-1 {
        fill: #3c5063;
      }

      .cls-2 {
        fill: #fff;
      }

      .cls-3 {
        fill: #464545;
      }

      .cls-4 {
        fill: #3b5063;
      }

      .cls-5 {
        fill: #17709b;
      }

      .cls-6 {
        fill: #fcfbfb;
      }

      .cls-7 {
        fill: url(#linear-gradient);
      }
    </style>
    <linearGradient id="linear-gradient" x1="153.11" y1="27.95" x2="153.11" y2="59.07" gradientUnits="userSpaceOnUse">
      <stop offset="0" stop-color="#454546"/>
      <stop offset="1" stop-color="#3c5063"/>
    </linearGradient>
  </defs>
  <path class="cls-3" d="M146.87,4.89c58.69-2.65,111.87,35.16,151.83,74.18,1.16,1.13,2.27,2.33,3.46,3.46.48.45,2.23,1.32,2.07,2.03l-12.45,12.16c-41.87,38.13-94.66,73.64-154.34,66.61-47.4-5.58-91.58-37.52-125.27-69.4-3.04-2.88-6.41-5.64-9.19-8.81-.22-.25-.59-.42-.5-.84.09-.38,4.77-4.86,5.52-5.58C44.67,43.36,94.03,7.27,146.87,4.89Z"/>
  <path class="cls-6" d="M155.61,27.98l12.62,1.09c34.23,4.76,68.57,26.57,94.27,48.79,2.34,2.02,4.55,4.24,6.77,6.39l.18.88c-24.59,21.57-52.27,41.59-84.03,51.06-21.47,6.4-41.23,6.37-62.8.42-29.84-8.23-61.16-29.47-83.94-50.11-.41-.37-1.99-1.77-1.89-2.21,9.93-9.01,20.36-17.45,31.4-25.08,22.47-15.52,47.87-28.09,75.47-30.88,1.84-.14,5.63-.24,6.96-.31"/>
  <circle class="cls-5" cx="153.26" cy="84.52" r="41.52"/>
  <rect class="cls-2" x="148.12" y="35.08" width="9.99" height="43.44"/>
  <rect class="cls-2" x="134.46" y="57.36" width="37.3" height="54.83" rx="5.34" ry="5.34"/>
  <rect class="cls-7" x="150.61" y="27.95" width="5" height="31.12"/>
  <rect class="cls-1" x="136.84" y="59.07" width="32.85" height="50.89" rx="5.34" ry="5.34"/>
  <ellipse class="cls-6" cx="153.41" cy="84.52" rx="11.99" ry="11.98"/>
  <ellipse class="cls-4" cx="153.41" cy="84.52" rx="9.17" ry="9.16"/>
  <circle class="cls-6" cx="153.41" cy="84.52" r="4.7"/>
</svg>