<?xml version="1.0" encoding="utf-8"?>
<!-- Generator: Adobe Illustrator 26.0.2, SVG Export Plug-In . SVG Version: 6.00 Build 0)  -->
<svg version="1.1" id="Layer_1" xmlns="http://www.w3.org/2000/svg" xmlns:xlink="http://www.w3.org/1999/xlink" x="0px" y="0px"
	 viewBox="0 0 585 108" style="enable-background:new 0 0 585 108;" xml:space="preserve">
<style type="text/css">
	.st0{fill:#008539;}
	.st1{fill-rule:evenodd;clip-rule:evenodd;fill:#008539;}
</style>
<g>
	<path class="st0" d="M0.9,0.9h23.8v61.8c0,20.2,7.7,25.3,23,25.3s23-5.2,23-25.3V0.9h23.6v65c0,27.1-15.5,41.4-46.6,41.4
		S0.9,93.1,0.9,65.9V0.9z"/>
	<path class="st0" d="M317.5,76.6c0,17.5-11.4,28.3-33.6,28.3H227V0.9h58c22.2,0,31.1,11.6,31.1,25.6c0,15.3-9.5,22.2-21.4,24.7
		C307.7,53.3,317.6,60,317.5,76.6 M250.8,18.9v24.9h26.4c10.3,0,14.1-5,14.1-12.5c0-8-3.4-12.4-13.3-12.4H250.8L250.8,18.9z
		 M292.8,73.3c0-8.3-4.2-13.6-15.6-13.6h-26.4v27.1h27.8C289.2,86.7,292.8,80.9,292.8,73.3"/>
	<path class="st1" d="M176.4,0.8h-33.5l-41.4,104h23.4c0.3-0.9,0.8-2.2,1.1-3c1.9-4.6,4.8-8.4,8.3-11.7c5.8-5.4,12.8-7.7,20.1-8.3
		c4.9-0.4,10.7-0.5,15.7-0.5h15.3l9.1,23.5h23.4L176.4,0.8z M168.3,63.1c-0.6,0-1.2,0-1.8,0c-12.3,0.1-22.5,3-32.2,17.3l25.4-63.1
		l18.4,45.8C177.9,63.1,168.3,63.1,168.3,63.1"/>
</g>
<g>
	<g>
		<path class="st0" d="M351.5,0.8h5.6v14.5c0,4.7,1.8,6,5.4,6s5.4-1.2,5.4-6V0.8h5.6v15.3c0,6.4-3.6,9.8-11,9.8s-11-3.3-11-9.8V0.8
			L351.5,0.8z"/>
		<path class="st0" d="M396.5,14v11.3h-5.4V14.9c0-2.9-1.3-4.1-3.5-4.1c-2.9,0-4.5,1.8-4.5,6.2v8.4h-5.4V6.9h5.4v3.6
			c1.2-2.5,3.3-4.2,6.6-4.2C394.5,6.3,396.5,9.2,396.5,14L396.5,14z"/>
		<path class="st0" d="M400.3,0.8h5.9v3.6h-5.9V0.8z M400.6,6.9h5.4v18.4h-5.4V6.9L400.6,6.9z"/>
		<path class="st0" d="M429,6.9l-6.4,18.4h-7.7l-6.4-18.4h5.6l4.9,14.2l4.9-14.2L429,6.9L429,6.9z"/>
		<path class="st0" d="M444,19.8h5.2c-0.5,2.9-2.9,6.2-9.5,6.2c-7.2,0-9.9-4.6-9.9-9.8s3.1-9.8,9.9-9.8s9.5,4.5,9.5,9.7
			c0,0.6,0,1.1-0.1,1.5h-14c0.3,3.5,2.1,4.6,4.7,4.6C442.2,22.2,443.5,21.1,444,19.8L444,19.8z M435.2,14.2h8.9
			c-0.2-2.8-1.5-4.2-4.3-4.2C437,10,435.6,11.1,435.2,14.2z"/>
		<path class="st0" d="M464.6,6.6v5.3h-1.8c-3.6,0-4.9,2-4.9,6.1v7.3h-5.4V6.9h5.3v3.9c0.9-2.6,2.5-4.2,5.6-4.2L464.6,6.6L464.6,6.6
			z"/>
		<path class="st0" d="M471.1,19.3c0.1,1.8,1.5,3.2,4.2,3.2c2.5,0,3.3-0.8,3.3-2.1c0-1.1-0.5-1.9-2.6-2.2l-4.1-0.5
			c-3.5-0.4-5.3-2.3-5.3-5.4c0-4.1,3.5-6,8.4-6s8.3,2,8.6,6h-5c-0.2-1.5-1.3-2.6-3.6-2.6s-3.3,0.9-3.3,2.1c0,0.9,0.5,1.7,2.3,1.9
			l3.9,0.4c4.4,0.6,6,2.4,6,5.7c0,3.6-2.3,6.1-8.6,6.1c-6.3,0-9-3.1-9.1-6.6H471.1L471.1,19.3z"/>
	</g>
	<path class="st0" d="M486.9,0.8h5.9v3.6h-5.9V0.8z M487.2,6.9h5.4v18.4h-5.4V6.9L487.2,6.9z"/>
	<path class="st0" d="M498.7,18.7V11h-3.3V8.4l3.8-1.5l2.2-4.3h2.8V7h5.3v4h-5.3v10h4.8v4.3h-3.5C500.2,25.3,498.7,23.1,498.7,18.7
		L498.7,18.7z"/>
	<path class="st0" d="M511.8,20.4c0-2.9,1.3-4.9,6-5.7l4.3-0.7c1.7-0.3,2.3-0.8,2.3-1.8c0-1.3-0.7-2.1-3.2-2.1s-3.7,1-3.8,2.9h-5.3
		c0.1-3.9,3.4-6.6,9-6.6s8.3,2.4,8.3,6.3v8c0,1.7,0.1,3.2,0.3,4.8H525c-0.2-1.2-0.3-2.4-0.3-3.9c-0.8,2.5-3.1,4.4-6.8,4.4
		S511.8,23.7,511.8,20.4L511.8,20.4z M524.4,16.6v-0.8c-1,0.7-1.9,0.9-3,1.2l-1.5,0.4c-2,0.5-2.7,1.2-2.7,2.6c0,1.5,1.1,2.2,2.6,2.2
		C522.6,22.1,524.4,20,524.4,16.6L524.4,16.6z"/>
	<path class="st0" d="M534.7,18.7V11h-3.3V8.4l3.8-1.5l2.2-4.3h2.8V7h5.3v4h-5.3v10h4.8v4.3h-3.5C536.2,25.3,534.7,23.1,534.7,18.7
		L534.7,18.7z"/>
	<path class="st0" d="M368.9,60h-11l-1.8,5h-5.6l8.6-24.5h8.5l8.6,24.5h-5.6L368.9,60L368.9,60z M367.4,55.7l-4-11.3l-4,11.3H367.4z
		"/>
	<g>
		<path class="st0" d="M397.3,46.6V65h-5.4v-3.5c-1.1,2.5-3.2,4.1-6.5,4.1c-4.8,0-7-2.9-7-7.7V46.6h5.4V57c0,2.9,1.3,4.1,3.6,4.1
			c2.7,0,4.4-2,4.4-6.2v-8.4L397.3,46.6L397.3,46.6z"/>
		<path class="st0" d="M403.4,58.4v-7.7h-3.3v-2.6l3.8-1.5l2.2-4.3h2.8v4.4h5.3v4.1h-5.3v9.9h4.8V65h-3.5
			C405,65,403.4,62.8,403.4,58.4L403.4,58.4z"/>
	</g>
	<g>
		<path class="st0" d="M416.1,55.8c0-5.1,2.9-9.8,10.2-9.8s10.2,4.7,10.2,9.8s-2.8,9.8-10.2,9.8S416.1,60.9,416.1,55.8z M422.2,39.9
			l9.3,3.2l-0.4,1.4l-9.9-1.2L422.2,39.9z M426.3,61.3c3.3,0,4.7-1.4,4.7-5.5s-1.4-5.5-4.7-5.5c-3.3,0-4.7,1.4-4.7,5.5
			S423,61.3,426.3,61.3z"/>
		<path class="st0" d="M458.7,53.7V65h-5.4V54.5c0-2.9-1.3-4.1-3.5-4.1c-2.9,0-4.5,1.8-4.5,6.2V65h-5.4V46.6h5.4v3.6
			c1.2-2.5,3.3-4.2,6.6-4.2C456.7,46,458.7,48.9,458.7,53.7L458.7,53.7z"/>
		<path class="st0" d="M461.7,55.8c0-5.1,2.9-9.8,10.2-9.8s10.2,4.7,10.2,9.8s-2.8,9.8-10.2,9.8C464.6,65.6,461.7,60.9,461.7,55.8z
			 M471.9,61.3c3.3,0,4.7-1.4,4.7-5.5s-1.4-5.5-4.7-5.5c-3.3,0-4.7,1.4-4.7,5.5S468.6,61.3,471.9,61.3z"/>
	</g>
	<path class="st0" d="M516.5,53.7V65h-5.4V54.5c0-2.8-1.1-4-3.3-4c-2.8,0-4.2,1.8-4.2,6.2V65h-5.3V54.5c0-2.8-1.1-4-3.3-4
		c-2.8,0-4.2,1.8-4.2,6.2V65h-5.4V46.6h5.4V50c1.1-2.4,3.1-3.9,6.3-3.9s5.3,1.5,6.1,4.3c1.1-2.5,3.1-4.3,6.6-4.3
		C514.4,46,516.5,48.9,516.5,53.7L516.5,53.7z"/>
	<path class="st0" d="M519.7,60.1c0-2.9,1.3-4.9,6-5.7l4.3-0.7c1.7-0.3,2.3-0.8,2.3-1.8c0-1.3-0.7-2.1-3.2-2.1s-3.7,1-3.8,2.9H520
		c0.1-3.9,3.4-6.6,9-6.6s8.3,2.4,8.3,6.3v8c0,1.7,0.1,3.2,0.3,4.8h-4.7c-0.2-1.2-0.3-2.4-0.3-3.9c-0.8,2.5-3.1,4.4-6.8,4.4
		S519.7,63.4,519.7,60.1L519.7,60.1z M532.4,56.2v-0.8c-1,0.7-1.9,0.9-3,1.2l-1.5,0.4c-2,0.5-2.7,1.2-2.7,2.6c0,1.5,1.1,2.2,2.6,2.2
		C530.5,61.8,532.4,59.7,532.4,56.2L532.4,56.2z"/>
	<path class="st0" d="M369.8,78.9v25.8h-5.4V102c-1.3,2.1-3.4,3.3-6.6,3.3c-6,0-8.5-4.5-8.5-9.8s2.5-9.8,8.5-9.8
		c3.2,0,5.3,1.3,6.6,3.3V78.9H369.8z M364.4,95.5c0-3.8-1.5-5.5-4.9-5.5s-4.7,1.7-4.7,5.5s1.3,5.5,4.7,5.5S364.4,99.2,364.4,95.5z"
		/>
	<path class="st0" d="M387,99.1h5.2c-0.5,2.9-2.9,6.2-9.5,6.2c-7.2,0-9.9-4.6-9.9-9.8s3.1-9.8,9.9-9.8s9.5,4.5,9.5,9.7
		c0,0.6,0,1.1-0.1,1.5h-14c0.3,3.5,2.1,4.6,4.7,4.6C385.3,101.5,386.5,100.5,387,99.1L387,99.1z M378.2,93.6h8.9
		c-0.2-2.8-1.5-4.2-4.3-4.2C380.1,89.4,378.7,90.4,378.2,93.6z"/>
	<path class="st0" d="M425.5,98c0,4.1-2.7,6.7-7.9,6.7h-13.4V80.2h13.7c5.2,0,7.3,2.7,7.3,6c0,3.6-2.2,5.2-5,5.8
		C423.2,92.5,425.5,94.1,425.5,98L425.5,98z M409.8,84.4v5.9h6.2c2.4,0,3.3-1.2,3.3-2.9c0-1.9-0.8-2.9-3.1-2.9L409.8,84.4
		L409.8,84.4z M419.7,97.2c0-2-1-3.2-3.7-3.2h-6.2v6.4h6.6C418.9,100.4,419.7,99,419.7,97.2L419.7,97.2z"/>
	<path class="st0" d="M428.8,99.8c0-2.9,1.3-4.9,6-5.7l4.3-0.7c1.7-0.3,2.3-0.8,2.3-1.8c0-1.3-0.7-2.1-3.2-2.1s-3.7,1-3.8,2.9h-5.3
		c0.1-3.9,3.4-6.6,9-6.6s8.3,2.4,8.3,6.3v8c0,1.7,0.1,3.2,0.3,4.8H442c-0.2-1.2-0.3-2.4-0.3-3.9c-0.8,2.5-3.1,4.4-6.8,4.4
		S428.8,103.1,428.8,99.8L428.8,99.8z M441.5,95.9v-0.8c-1,0.7-1.9,0.9-3,1.2l-1.5,0.4c-2,0.5-2.7,1.2-2.7,2.6
		c0,1.5,1.1,2.2,2.6,2.2C439.6,101.4,441.5,99.3,441.5,95.9L441.5,95.9z"/>
	<g>
		<path class="st0" d="M463.4,86v5.3h-1.8c-3.6,0-4.9,2-4.9,6.1v7.3h-5.4V86.3h5.3v3.9c0.9-2.6,2.5-4.2,5.6-4.2L463.4,86L463.4,86z"
			/>
		<path class="st0" d="M475,85.7c6.4,0,9.5,3.5,9.6,8.1h-5.3c-0.2-2.3-1.4-3.8-4.2-3.8c-2.9,0-4.7,1.4-4.7,5.5s1.7,5.5,4.6,5.5
			s4.2-1.7,4.4-3.9h5.3c-0.1,4.3-3.2,8.2-9.6,8.2c-7.2,0-10.2-4.6-10.2-9.8C464.9,90.3,467.9,85.7,475,85.7L475,85.7z"/>
		<path class="st0" d="M501.3,99.1h5.2c-0.5,2.9-2.9,6.2-9.5,6.2c-7.2,0-9.9-4.6-9.9-9.8s3.1-9.8,9.9-9.8s9.5,4.5,9.5,9.7
			c0,0.6,0,1.1-0.1,1.5h-14c0.3,3.5,2.1,4.6,4.7,4.6C499.6,101.5,500.8,100.5,501.3,99.1L501.3,99.1z M492.5,93.6h8.9
			c-0.2-2.8-1.5-4.2-4.3-4.2C494.4,89.4,493,90.4,492.5,93.6z"/>
		<path class="st0" d="M509.7,78.9h5.4v25.8h-5.4L509.7,78.9L509.7,78.9z"/>
		<path class="st0" d="M518.5,95.4c0-5.1,2.9-9.8,10.2-9.8s10.2,4.7,10.2,9.8c0,5-2.8,9.8-10.2,9.8S518.5,100.6,518.5,95.4z
			 M528.7,101c3.3,0,4.7-1.4,4.7-5.5S532,90,528.7,90s-4.7,1.4-4.7,5.5S525.4,101,528.7,101z"/>
		<path class="st0" d="M561.1,93.4v11.3h-5.4V94.2c0-2.9-1.3-4.1-3.5-4.1c-2.9,0-4.5,1.8-4.5,6.2v8.4h-5.4V86.3h5.4v3.6
			c1.2-2.5,3.3-4.2,6.6-4.2C559.1,85.7,561.2,88.6,561.1,93.4L561.1,93.4z"/>
		<path class="st0" d="M564.7,99.8c0-2.9,1.3-4.9,6-5.7l4.3-0.7c1.7-0.3,2.3-0.8,2.3-1.8c0-1.3-0.7-2.1-3.2-2.1s-3.7,1-3.8,2.9H565
			c0.1-3.9,3.4-6.6,9-6.6s8.3,2.4,8.3,6.3v8c0,1.7,0.1,3.2,0.3,4.8h-4.7c-0.2-1.2-0.3-2.4-0.3-3.9c-0.8,2.5-3.1,4.4-6.8,4.4
			C567,105.2,564.7,103.1,564.7,99.8L564.7,99.8z M577.3,95.9v-0.8c-1,0.7-1.9,0.9-3,1.2l-1.5,0.4c-2,0.5-2.7,1.2-2.7,2.6
			c0,1.5,1.1,2.2,2.6,2.2C575.5,101.4,577.3,99.3,577.3,95.9L577.3,95.9z"/>
	</g>
</g>
</svg>
